<?xml version="1.0" encoding="UTF-8" standalone="no"?>
<svg width="512" height="512" viewBox="0 0 512 512" fill="none" xmlns="http://www.w3.org/2000/svg">
  <!-- Hexagon background -->
  <path d="M256 40L432 148V364L256 472L80 364V148L256 40Z" fill="#712DC0" stroke="#9A54FF" stroke-width="8"/>
  
  <!-- Twitter bird (simplified) -->
  <path d="M350 170c-9.9 4.4-20.6 7.4-31.8 8.7 11.4-6.8 20.2-17.6 24.3-30.5-10.7 6.3-22.5 11-35.1 13.4-10.1-10.7-24.4-17.4-40.3-17.4-30.5 0-55.2 24.7-55.2 55.2 0 4.3.5 8.5 1.4 12.6-45.9-2.3-86.5-24.3-113.8-57.7-4.7 8.1-7.5 17.6-7.5 27.7 0 19.1 9.8 36 24.6 45.9-9.1-.3-17.6-2.8-25.1-6.9v.7c0 26.7 19 49 44.2 54.1-4.6 1.3-9.5 1.9-14.5 1.9-3.5 0-7-.3-10.3-.9 7 21.9 27.4 37.8 51.6 38.3-18.9 14.8-42.7 23.6-68.6 23.6-4.5 0-8.9-.3-13.2-.8 24.4 15.7 53.4 24.8 84.5 24.8 101.4 0 156.8-84 156.8-156.8 0-2.4 0-4.8-.2-7.1 10.7-7.8 20.1-17.5 27.5-28.6z" fill="#1DA1F2"/>
  
  <!-- HBAR symbol -->
  <text x="295" y="170" font-family="Arial" font-size="40" font-weight="bold" fill="white">â„</text>
  
  <!-- Text "Hedera Twitter Pay" -->
  <text x="256" y="450" font-family="Arial" font-size="28" font-weight="bold" fill="white" text-anchor="middle">Hedera Twitter Pay</text>
</svg> 